Coordinates
version=1
nRows=20
nColumns=38
inDegrees=no

Units are S.I. units (second, meters, Newtons, ...)
If the header above contains a line with 'inDegrees', this indicates whether rotational values are in degrees (yes) or radians (no).

endheader
time	pelvis_tilt	pelvis_list	pelvis_rotation	pelvis_tx	pelvis_ty	pelvis_tz	hip_flexion_r	hip_adduction_r	hip_rotation_r	knee_angle_r	ankle_angle_r	subtalar_angle_r	mtp_angle_r	hip_flexion_l	hip_adduction_l	hip_rotation_l	knee_angle_l	ankle_angle_l	subtalar_angle_l	mtp_angle_l	lumbar_extension	lumbar_bending	lumbar_rotation	arm_flex_r	arm_add_r	arm_rot_r	elbow_flex_r	pro_sup_r	wrist_flex_r	wrist_dev_r	arm_flex_l	arm_add_l	arm_rot_l	elbow_flex_l	pro_sup_l	wrist_flex_l	wrist_dev_l
0	-2.55557	1.46533	0.96052	0.869988	1.85239	1.0517	0.592389	-0.0228802	-0.0873137	0.840733	0.0555016	0	0	-0.0595294	-0.0581875	-0.30852	0.144817	-0.0773747	0	0	-0.270959	0.075599	0.0800496	-0.206131	-0.467682	0.208286	0.78031	1.00829	0	0	0.264416	-0.655034	0.540453	0.706498	1.38644	0	0
0.01	-2.6147	1.45906	1.02125	0.869132	1.84123	1.05	0.595726	-0.0221205	-0.070923	0.763195	0.0490335	0	0	-0.0644235	-0.0556169	-0.302828	0.138201	-0.0775215	0	0	-0.258027	0.072126	0.0803082	-0.203058	-0.463393	0.216432	0.767446	1.00097	0	0	0.278478	-0.653618	0.559268	0.69542	1.38778	0	0
0.02	-2.62455	1.45667	1.03531	0.868548	1.82955	1.04886	0.586414	-0.022436	-0.0694809	0.675267	0.038063	0	0	-0.0751092	-0.056269	-0.30031	0.134228	-0.0774328	0	0	-0.254605	0.0729717	0.0759577	-0.19862	-0.461177	0.22395	0.759187	0.996686	0	0	0.288734	-0.6537	0.574494	0.687731	1.38659	0	0
0.03	-2.63183	1.45482	1.04668	0.867866	1.81767	1.0476	0.573498	-0.0217964	-0.0601592	0.581481	0.0223583	0	0	-0.0856663	-0.0572832	-0.299332	0.132794	-0.0769123	0	0	-0.252802	0.0739946	0.071487	-0.194635	-0.458836	0.23009	0.75233	0.993499	0	0	0.297353	-0.654545	0.588471	0.681981	1.38401	0	0
0.04	-2.64069	1.45457	1.06036	0.867155	1.80544	1.04618	0.554267	-0.0242208	-0.0523736	0.481085	0.000890914	0	0	-0.0974971	-0.0576548	-0.29964	0.132236	-0.0757801	0	0	-0.25223	0.0742873	0.0659954	-0.191605	-0.456119	0.235058	0.746472	0.990542	0	0	0.304442	-0.656591	0.602302	0.678093	1.38058	0	0
0.05	-2.66909	1.45418	1.09314	0.866301	1.79303	1.04433	0.534746	-0.0294768	-0.0345659	0.380691	-0.0318246	0	0	-0.107947	-0.05624	-0.300518	0.132458	-0.0740942	0	0	-0.249956	0.0725082	0.0603821	-0.190132	-0.452946	0.239127	0.741971	0.986853	0	0	0.31013	-0.660056	0.617716	0.675535	1.37646	0	0
0.06	-2.71981	1.45366	1.14818	0.865341	1.78031	1.04206	0.51768	-0.0378384	-0.0206624	0.285352	-0.0720356	0	0	-0.117134	-0.0530064	-0.302488	0.133611	-0.0723695	0	0	-0.245464	0.0680443	0.0545949	-0.190566	-0.448803	0.24239	0.737888	0.98368	0	0	0.3144	-0.664303	0.633579	0.673529	1.37441	0	0
0.07	-2.76993	1.45274	1.20192	0.864147	1.76743	1.0396	0.502803	-0.0458157	-0.0140767	0.198399	-0.118967	0	0	-0.125928	-0.0497017	-0.303667	0.135841	-0.0699625	0	0	-0.240832	0.0635422	0.0498831	-0.192081	-0.444578	0.245322	0.734598	0.981527	0	0	0.317415	-0.669098	0.64831	0.673447	1.36981	0	0
0.08	-2.83057	1.45065	1.26494	0.862771	1.75446	1.03687	0.493124	-0.0535397	-0.0124781	0.128701	-0.162849	0	0	-0.13262	-0.04534	-0.304453	0.140362	-0.0670895	0	0	-0.234921	0.0578481	0.0463327	-0.194722	-0.44016	0.247364	0.732158	0.980187	0	0	0.318975	-0.674698	0.661974	0.675448	1.36327	0	0
0.09	-2.88866	1.44906	1.32489	0.861195	1.74122	1.03408	0.48397	-0.0604411	-0.0133267	0.0650263	-0.199449	0	0	-0.139906	-0.0412727	-0.306019	0.146696	-0.0643622	0	0	-0.230001	0.0520598	0.043349	-0.198606	-0.435613	0.247442	0.731409	0.978603	0	0	0.318689	-0.680967	0.673646	0.67916	1.35571	0	0
0.1	-2.93586	1.44834	1.37362	0.859535	1.72774	1.03148	0.476375	-0.0650626	-0.0217428	0.0164998	-0.217593	0	0	-0.148159	-0.0386405	-0.307909	0.154971	-0.0623846	0	0	-0.227137	0.0475896	0.0411566	-0.203175	-0.431578	0.245966	0.732011	0.976143	0	0	0.316491	-0.686418	0.680902	0.683482	1.34972	0	0
0.11	-2.97511	1.44759	1.41372	0.857751	1.71408	1.02901	0.472614	-0.0672886	-0.0365728	0	-0.21885	0	0	-0.155809	-0.0373791	-0.309998	0.165621	-0.0608674	0	0	-0.225067	0.0442325	0.0400683	-0.207604	-0.427891	0.244373	0.732438	0.973099	0	0	0.312714	-0.690572	0.684125	0.687189	1.34592	0	0
0.12	-3.00196	1.4478	1.44119	0.855894	1.7003	1.02681	0.469361	-0.066888	-0.053167	0	-0.206443	0	0	-0.163534	-0.03787	-0.311437	0.179166	-0.0586053	0	0	-0.224807	0.0425237	0.0387571	-0.210255	-0.424925	0.245473	0.731595	0.971282	0	0	0.307842	-0.694484	0.68685	0.690081	1.33921	0	0
0.13	-3.01787	1.44893	1.45744	0.853954	1.68635	1.02492	0.464301	-0.0642689	-0.063794	0	-0.192796	0	0	-0.171116	-0.0398967	-0.312159	0.195537	-0.058686	0	0	-0.226012	0.0423898	0.0376443	-0.211951	-0.422042	0.246753	0.729753	0.970598	0	0	0.300746	-0.696123	0.683103	0.690828	1.33445	0	0
0.14	-3.02339	1.45025	1.46302	0.851879	1.67221	1.02332	0.458317	-0.0595927	-0.0679485	0	-0.186675	0	0	-0.177634	-0.0435306	-0.311561	0.215051	-0.0596437	0	0	-0.227499	0.0436459	0.0368753	-0.213169	-0.418744	0.24698	0.726788	0.968141	0	0	0.291626	-0.695864	0.674706	0.689623	1.33089	0	0
0.15	-3.01782	1.45169	1.45737	0.849696	1.65779	1.02197	0.451319	-0.0529606	-0.0672418	0	-0.186577	0	0	-0.183279	-0.0488066	-0.309706	0.236812	-0.0611254	0	0	-0.229241	0.0463606	0.0371254	-0.214101	-0.415452	0.247921	0.722516	0.966057	0	0	0.28179	-0.694461	0.665823	0.68741	1.32857	0	0
0.16	-2.99844	1.45399	1.43835	0.847477	1.64308	1.02088	0.442109	-0.0442106	-0.0646597	0	-0.191069	0	0	-0.188535	-0.0559767	-0.306889	0.261839	-0.0639056	0	0	-0.231801	0.0509949	0.0371524	-0.214497	-0.412383	0.249626	0.717048	0.964234	0	0	0.270287	-0.692165	0.655447	0.684425	1.32691	0	0
0.17	-2.96588	1.45702	1.40672	0.845305	1.62809	1.02	0.431074	-0.0337916	-0.0611443	0	-0.201661	0	0	-0.193333	-0.0644895	-0.302622	0.289781	-0.0682526	0	0	-0.234821	0.0575521	0.0364849	-0.214389	-0.409941	0.252587	0.710524	0.962501	0	0	0.257264	-0.688193	0.642558	0.679613	1.3248	0	0
0.18	-2.9345	1.45976	1.37766	0.843343	1.61305	1.01934	0.420739	-0.0249611	-0.0561139	0	-0.22313	0	0	-0.194929	-0.0732296	-0.29614	0.322873	-0.0751474	0	0	-0.237296	0.0644092	0.03414	-0.213149	-0.40777	0.257477	0.702163	0.960054	0	0	0.243361	-0.682383	0.626822	0.67281	1.32234	0	0
0.19	-2.90542	1.45943	1.35074	0.841307	1.59817	1.01867	0.414905	-0.0179659	-0.0445942	0	-0.269796	0	0	-0.190013	-0.0817786	-0.284744	0.362219	-0.0899995	0	0	-0.235506	0.0715388	0.0301421	-0.208635	-0.406255	0.269484	0.689784	0.954448	0	0	0.225205	-0.674228	0.601889	0.664084	1.321	0	0
